Coordinates
version=1
nRows=8
nColumns=36
inDegrees=yes

Units are S.I. units (second, meters, Newtons, ...)
If the header above contains a line with 'inDegrees', this indicates whether rotational values are in degrees (yes) or radians (no).

endheader
time	pelvis_tilt	pelvis_list	pelvis_rotation	pelvis_tx	pelvis_ty	pelvis_tz	hip_flexion_r	hip_adduction_r	hip_rotation_r	knee_angle_r	knee_angle_r_beta	ankle_angle_r	subtalar_angle_r	mtp_angle_r	hip_flexion_l	hip_adduction_l	hip_rotation_l	knee_angle_l	knee_angle_l_beta	ankle_angle_l	subtalar_angle_l	mtp_angle_l	lumbar_extension	lumbar_bending	lumbar_rotation	arm_flex_r	arm_add_r	arm_rot_r	elbow_flex_r	pro_sup_r	arm_flex_l	arm_add_l	arm_rot_l	elbow_flex_l	pro_sup_l
      3.11666670	     -3.02286282	     -2.79564617	     11.72653316	      0.48594600	      0.91653033	     -0.23458954	     27.45862588	     -3.43017743	     -7.88603369	     21.98802751	      0.38376348	    -11.26801753	    -15.47648875	     -7.49999987	     34.22191194	     -7.91130565	      1.97441393	     22.58035758	      0.39410159	    -20.00334163	     -9.02885281	     -7.49999987	    -23.72437362	     -0.04822565	      5.40455402	    -27.60947932	     -9.15632969	     -9.88053693	     25.22064668	     72.33948816	    -23.85702347	    -13.55307639	    -20.65162015	     43.48387893	     71.61770639
      3.13333330	     -1.12714092	     -2.09023786	     12.28388898	      0.48697593	      0.88126678	     -0.23383148	     33.07911579	     -4.67979785	     -6.53676369	     38.59573973	      0.67362274	      0.58356279	    -21.07217833	     -7.49999987	     38.85024860	     -7.64334849	      2.12919952	     36.35176804	      0.63445804	     -7.32009588	    -12.08495905	     -7.49999987	    -27.82420440	     -0.71020360	      4.41581710	    -17.46969669	     -8.31026963	     -5.88619494	     21.02790370	     70.59244075	    -15.04191814	    -12.88719296	    -18.22508559	     41.02564565	     70.76209744
      3.15000000	      1.34011432	     -1.51775654	     11.66150838	      0.48843147	      0.84315235	     -0.24113199	     39.76659881	     -5.55761615	     -4.36984356	     55.92657346	      0.97610285	     10.88666775	    -22.96369596	     -7.49999987	     44.72241389	     -7.68374838	      2.77464965	     52.73573244	      0.92041216	      3.38701513	    -15.20251618	     -7.49999987	    -34.35534723	     -0.30617758	      2.05526333	     -3.81395812	    -10.34559192	      6.71925363	     19.95631706	     71.45514544	     -6.00175228	    -11.37609574	    -15.99315722	     40.04608991	     74.92027439
      3.16666670	      2.18096023	     -1.04993692	     12.21046554	      0.49066824	      0.81756130	     -0.24261376	     45.61389337	     -7.36731724	     -3.90256068	     68.57239942	      1.19681415	     18.52498181	    -21.97315965	     -7.49999987	     50.39235466	     -6.72959194	      4.22549259	     64.72532807	      1.12967008	     10.12901657	    -16.42716805	     -7.49999987	    -40.64469227	     -0.44760555	      1.05575213	      7.31142287	     -9.54478584	      7.51721324	     23.05282711	     72.62130385	      4.55133017	    -11.38909303	     -9.98060608	     39.48134389	     77.11193122
      3.18333330	      3.13690600	     -0.35174156	     11.64772104	      0.50499117	      0.80492954	     -0.25626575	     48.49479039	     -9.00724440	     -3.00168642	     75.97591177	      1.32602981	     22.93983455	    -19.76615429	     -7.49999987	     52.55541683	     -5.83769277	      4.42585537	     71.65946805	      1.25069366	     14.44873047	    -16.50315935	     -7.49999987	    -46.73395787	     -0.16372907	      0.69056516	     18.74155065	    -10.43644349	     10.36497493	     27.51520752	     75.58561069	     16.13664201	     -9.55512670	     -3.55517964	     37.31392157	     79.52613321
      3.20000000	      2.33466030	     -0.03662982	     12.11489997	      0.51411960	      0.77729057	     -0.25850572	     51.35800435	    -11.07973670	     -2.82791089	     80.85475014	      1.41118161	     26.42688461	    -17.26494556	     -7.49999987	     55.70280415	     -4.69237271	      5.01453988	     76.41860553	      1.33375628	     18.02386958	    -15.28264322	     -7.49999987	    -50.30493515	      0.47114299	     -0.97312500	     29.02148174	    -10.12779479	     11.37530287	     35.64269957	     76.12582906	     26.12608228	     -8.68758335	     -0.07849852	     40.61680357	     80.01736538
      3.21666670	      1.55050860	      0.49542661	     11.86624864	      0.51920257	      0.76847007	     -0.25171543	     52.57993758	    -12.15730957	     -2.67060190	     82.59525780	      1.44155920	     28.67513770	    -14.68730222	     -7.49999987	     57.31913971	     -3.98576473	      5.11372002	     79.13080768	      1.38109313	     19.24344778	    -15.24390145	     -7.49999987	    -53.80240114	     -0.19265483	     -0.31952107	     37.55707976	    -10.02582433	      9.36800717	     42.32565584	     87.37678366	     40.27719889	     -8.13502855	     11.87606567	     39.31316242	     85.15775186
      3.23333330	     -1.94858462	      0.37356729	     11.49532125	      0.49320643	      0.73794925	     -0.24306500	     58.93080751	    -12.43231187	     -1.80532737	     84.73350788	      1.47887870	     29.66862205	    -13.91902811	     -7.49999987	     63.22178869	     -4.51197042	      4.45505583	     81.16671152	      1.41662636	     20.06385806	    -14.20310061	     -7.49999987	    -53.97412494	     -0.91420884	      0.09548922	     50.66267384	    -10.07434169	     11.73174579	     49.16216436	     87.25889506	     53.96877922	     -6.36689650	     17.12868244	     42.67373481	     85.77965468
